<svg width="40" height="40" viewBox="0 0 40 40" fill="none" xmlns="http://www.w3.org/2000/svg">
<path d="M39.6444 8.4838C39.4222 8.32755 39.1373 8.28927 38.8819 8.38372L32.0883 10.8544C31.246 11.1604 30.5754 11.7773 30.2002 12.5911C30.1299 12.7436 30.0838 12.9022 30.0375 13.0604C28.8709 12.7288 26.703 12.0361 24.5484 10.9261C21.2927 9.24849 18.8055 10.0771 16.6722 11.7043C15.5913 11.7255 14.1014 11.8533 12.6369 11.9824C11.7027 12.0648 10.8198 12.1407 10.1038 12.1843C10.0862 11.7543 9.98563 11.3276 9.8 10.9245C9.42484 10.1107 8.7543 9.4938 7.91195 9.18786L1.1182 6.717C0.863516 6.62341 0.577031 6.66169 0.355703 6.81708C0.132656 6.97341 0 7.2281 0 7.49989V24.1665C0 24.6272 0.372734 24.9999 0.833359 24.9999H3.26742C4.30266 24.9999 5.26578 24.5116 5.88836 23.7232C6.22 23.9754 6.61281 24.2707 7.02477 24.58C7.99727 25.3116 9.06172 26.1099 9.52883 26.5014C12.6319 29.099 16.3623 31.9042 17.1053 32.3925C17.7995 32.8482 19.0495 33.3333 20 33.3333C20.3719 33.3333 21.3086 33.3333 21.9662 32.7774C22.6441 33.0435 23.3748 33.0305 24.0544 32.731C24.7323 32.4323 25.2808 31.8692 25.5998 31.1847C26.2508 31.3182 26.9987 31.2205 27.6766 30.8804C28.3121 30.5622 28.7801 30.0804 29.0307 29.5172C29.6329 29.5725 30.2759 29.3765 30.8512 28.9361C31.6732 28.3078 32.0496 27.3798 31.9431 26.4643L34.057 25.2949C34.676 26.134 35.6599 26.6665 36.7325 26.6665H39.1666C39.6272 26.6665 39.9999 26.2937 39.9999 25.8331V9.16661C40 8.89474 39.8673 8.64005 39.6444 8.4838ZM4.82828 22.2517C4.58578 22.8986 3.95836 23.3333 3.26742 23.3333H1.66664V8.68966L7.34211 10.7535C7.76367 10.9073 8.09898 11.2158 8.28609 11.6226C8.47406 12.0295 8.49039 12.4853 8.33328 12.9043L4.82828 22.2517ZM29.8397 27.6122C29.5573 27.8287 29.1618 27.9492 28.986 27.7734C28.977 27.7644 28.9631 27.7653 28.9539 27.7567C28.938 27.7419 28.9301 27.722 28.9128 27.7083C28.3171 27.2379 25.6478 24.5068 23.9983 22.7864C23.6801 22.4536 23.152 22.4413 22.8207 22.7611C22.4879 23.0793 22.4765 23.6067 22.7955 23.9387C23.1827 24.3429 26.2908 27.58 27.5348 28.7121C27.4419 29.078 27.1027 29.304 26.9304 29.3904C26.3966 29.6581 25.8399 29.6133 25.6316 29.4197C25.6254 29.4139 25.6162 29.4142 25.6098 29.4086C25.5996 29.3995 25.5951 29.3868 25.5843 29.3782C24.5849 28.5798 22.0777 25.9154 21.5104 25.2986C21.1987 24.9592 20.6722 24.938 20.3328 25.249C19.9943 25.5607 19.9715 26.088 20.2832 26.4265C20.3105 26.4561 22.7677 29.1067 24.1478 30.3379C24.0122 30.7275 23.7359 31.0503 23.3813 31.2068C23.1197 31.323 22.7105 31.3826 22.2429 31.0371C21.0462 30.0224 18.6445 27.4659 18.1722 26.9604C17.8589 26.6234 17.3299 26.6064 16.9946 26.9205C16.6585 27.2347 16.6406 27.762 16.9548 28.0981C17.5148 28.6975 19.17 30.4518 20.4283 31.6397C20.2877 31.6568 20.1402 31.6666 20 31.6666C19.4482 31.6666 18.5002 31.3143 18.0209 30.9993C17.4366 30.6151 13.7679 27.8776 10.5998 25.2245C10.1205 24.8225 9.02672 23.9997 8.0257 23.2478C7.48922 22.845 6.99492 22.4737 6.63063 22.1935L9.75078 13.8719C10.5607 13.8365 11.6405 13.7432 12.7832 13.6424C13.4295 13.5854 14.0766 13.5299 14.6948 13.4818C13.7445 14.4573 12.3316 16.2046 12.5179 17.8424C12.6034 18.5879 13.0111 19.2088 13.6987 19.6385C15.0602 20.4905 17.5806 19.776 18.7948 18.2827C19.5784 18.1696 20.1083 17.9694 20.686 17.6829C21.6626 18.6009 22.972 19.68 24.3473 20.8136C26.7416 22.7863 29.4555 25.0226 30.1734 26.2767C30.5729 26.9742 30.0187 27.4755 29.8397 27.6122ZM31.2693 24.9322C30.159 23.4469 27.7521 21.4597 25.4069 19.5271C23.8436 18.2388 22.3673 17.0222 21.4225 16.0774C21.1621 15.8186 20.7625 15.76 20.4402 15.9317C19.5914 16.3866 19.209 16.5746 18.2503 16.6706C17.9948 16.6966 17.7653 16.8383 17.6286 17.0555C16.9751 18.0923 15.1587 18.5854 14.5825 18.2258C14.2553 18.0207 14.1919 17.8123 14.174 17.6536C14.0934 16.9448 14.8112 15.7176 16.0018 14.5262C18.9502 11.5778 21.058 11.0008 23.785 12.4071C26.3759 13.7429 28.933 14.4983 30.0065 14.7836C30.0375 14.9084 30.06 15.0345 30.1058 15.1569L33.3415 23.7859L31.2693 24.9322ZM38.3334 24.9999H36.7326C36.0416 24.9999 35.4142 24.5653 35.1717 23.9183L31.6666 14.5718C31.5096 14.1519 31.5259 13.6962 31.7138 13.2893C31.901 12.8824 32.2363 12.574 32.6578 12.4201L38.3333 10.3563V24.9999H38.3334Z" fill="#202A39"/>
</svg>
