<svg width="40" height="40" viewBox="0 0 40 40" fill="none" xmlns="http://www.w3.org/2000/svg">
<mask id="path-1-inside-1" fill="white">
<path fill-rule="evenodd" clip-rule="evenodd" d="M19.6039 3.60385C21.6793 3.60385 23.3856 2.02317 23.5845 5.37184e-08C26.056 0.499128 28.3623 1.45392 30.4121 2.77292C29.1619 4.34322 29.2633 6.63607 30.7163 8.08913C32.1967 9.56945 34.5486 9.64694 36.1201 8.32163C37.6024 10.4873 38.6697 12.9593 39.2077 15.6232C37.1845 15.8221 35.6039 17.5284 35.6039 19.6038C35.6039 21.6793 37.1845 23.3856 39.2077 23.5845C38.6904 26.1459 37.6837 28.53 36.2893 30.6349C34.7217 29.1547 32.2507 29.1819 30.7162 30.7163C29.1818 32.2508 29.1546 34.7218 30.6348 36.2894C28.5299 37.6837 26.1459 38.6904 23.5845 39.2077C23.3856 37.1845 21.6793 35.6038 19.6039 35.6038C17.5284 35.6038 15.8221 37.1845 15.6232 39.2077C12.9593 38.6697 10.4873 37.6024 8.32162 36.1201C9.64682 34.5486 9.56929 32.1967 8.08902 30.7165C6.636 29.2634 4.34323 29.162 2.77294 30.4121C1.45392 28.3623 0.499131 26.056 1.92037e-06 23.5845C2.02318 23.3856 3.60385 21.6793 3.60385 19.6038C3.60385 17.5284 2.02318 15.8221 0 15.6232C0.521122 13.0428 1.53895 10.6425 2.9494 8.52618C4.51107 9.63417 6.68946 9.48845 8.0889 8.08902C9.48835 6.68957 9.63406 4.51116 8.52604 2.94949C10.6424 1.53899 13.0428 0.521133 15.6232 0C15.8221 2.02317 17.5284 3.60385 19.6039 3.60385Z"/>
</mask>
<path d="M23.5845 5.37184e-08L23.9804 -1.96042L21.8107 -2.39861L21.5941 -0.195684L23.5845 5.37184e-08ZM30.4121 2.77292L31.9767 4.01864L33.3545 2.28808L31.4943 1.09105L30.4121 2.77292ZM30.7163 8.08913L32.1306 6.67492L32.1306 6.67492L30.7163 8.08913ZM36.1201 8.32163L37.7706 7.19203L36.5215 5.36695L34.8308 6.79271L36.1201 8.32163ZM39.2077 15.6232L39.4034 17.6136L41.6063 17.397L41.1681 15.2273L39.2077 15.6232ZM39.2077 23.5845L41.1681 23.9804L41.6063 21.8107L39.4034 21.5941L39.2077 23.5845ZM36.2893 30.6349L34.9162 32.0891L36.6441 33.7207L37.9566 31.7394L36.2893 30.6349ZM30.7162 30.7163L32.1304 32.1306L32.1304 32.1306L30.7162 30.7163ZM30.6348 36.2894L31.7393 37.9567L33.7205 36.6443L32.089 34.9163L30.6348 36.2894ZM23.5845 39.2077L21.5941 39.4034L21.8107 41.6063L23.9804 41.1681L23.5845 39.2077ZM15.6232 39.2077L15.2273 41.1681L17.397 41.6063L17.6136 39.4034L15.6232 39.2077ZM8.32162 36.1201L6.79265 34.8309L5.36702 36.5215L7.19203 37.7706L8.32162 36.1201ZM8.08902 30.7165L9.50323 29.3022L9.50323 29.3022L8.08902 30.7165ZM2.77294 30.4121L1.09107 31.4943L2.28804 33.3545L4.01859 31.9768L2.77294 30.4121ZM1.92037e-06 23.5845L-0.195682 21.5941L-2.39861 21.8107L-1.96042 23.9804L1.92037e-06 23.5845ZM0 15.6232L-1.96042 15.2273L-2.39861 17.397L-0.195684 17.6136L0 15.6232ZM2.9494 8.52618L4.1067 6.89502L2.42721 5.70343L1.28516 7.41699L2.9494 8.52618ZM8.0889 8.08902L9.50311 9.50323L9.50311 9.50323L8.0889 8.08902ZM8.52604 2.94949L7.41685 1.28525L5.70329 2.42732L6.8949 4.1068L8.52604 2.94949ZM15.6232 0L17.6136 -0.195683L17.397 -2.39861L15.2273 -1.96042L15.6232 0ZM21.5941 -0.195684C21.4948 0.813767 20.6404 1.60385 19.6039 1.60385V5.60385C22.7182 5.60385 25.2763 3.23258 25.5749 0.195684L21.5941 -0.195684ZM31.4943 1.09105C29.2396 -0.359847 26.7012 -1.41094 23.9804 -1.96042L23.1886 1.96042C25.4107 2.4092 27.485 3.26768 29.3298 4.45479L31.4943 1.09105ZM32.1306 6.67492C31.405 5.94937 31.3529 4.80213 31.9767 4.01864L28.8474 1.52721C26.9708 3.88431 27.1216 7.32278 29.3021 9.50334L32.1306 6.67492ZM34.8308 6.79271C34.0466 7.45401 32.87 7.41434 32.1306 6.67492L29.3021 9.50334C31.5233 11.7245 35.0505 11.8399 37.4095 9.85055L34.8308 6.79271ZM41.1681 15.2273C40.5759 12.2946 39.4008 9.57397 37.7706 7.19203L34.4697 9.45122C35.8039 11.4006 36.7636 13.6241 37.2473 16.0191L41.1681 15.2273ZM37.6039 19.6038C37.6039 18.5673 38.3939 17.7129 39.4034 17.6136L39.012 13.6328C35.9751 13.9314 33.6039 16.4895 33.6039 19.6038H37.6039ZM39.4034 21.5941C38.3939 21.4948 37.6039 20.6404 37.6039 19.6038H33.6039C33.6039 22.7182 35.9751 25.2763 39.012 25.5749L39.4034 21.5941ZM37.9566 31.7394C39.4903 29.4242 40.5986 26.8003 41.1681 23.9804L37.2473 23.1886C36.7822 25.4916 35.877 27.6358 34.6219 29.5304L37.9566 31.7394ZM32.1304 32.1306C32.8974 31.3636 34.1332 31.3498 34.9162 32.0891L37.6624 29.1807C35.3101 26.9597 31.6039 27.0002 29.302 29.3021L32.1304 32.1306ZM32.089 34.9163C31.3497 34.1333 31.3635 32.8975 32.1304 32.1306L29.302 29.3021C27.0001 31.604 26.9596 35.3102 29.1806 37.6624L32.089 34.9163ZM23.9804 41.1681C26.8002 40.5986 29.4241 39.4904 31.7393 37.9567L29.5303 34.622C27.6357 35.877 25.4915 36.7822 23.1886 37.2473L23.9804 41.1681ZM19.6039 37.6038C20.6404 37.6038 21.4948 38.3939 21.5941 39.4034L25.5749 39.012C25.2763 35.9751 22.7182 33.6038 19.6039 33.6038V37.6038ZM17.6136 39.4034C17.7129 38.3939 18.5673 37.6038 19.6039 37.6038V33.6038C16.4895 33.6038 13.9314 35.9751 13.6328 39.012L17.6136 39.4034ZM7.19203 37.7706C9.57396 39.4008 12.2946 40.5758 15.2273 41.1681L16.0191 37.2473C13.6241 36.7636 11.4006 35.8039 9.45122 34.4697L7.19203 37.7706ZM6.6748 32.1307C7.41421 32.8701 7.45389 34.0467 6.79265 34.8309L9.8506 37.4094C11.8398 35.0504 11.7244 31.5234 9.50323 29.3022L6.6748 32.1307ZM4.01859 31.9768C4.80208 31.3531 5.94927 31.4051 6.6748 32.1307L9.50323 29.3022C7.32272 27.1217 3.88438 26.9709 1.52728 28.8474L4.01859 31.9768ZM-1.96042 23.9804C-1.41094 26.7012 -0.35984 29.2396 1.09107 31.4943L4.4548 29.3298C3.26769 27.485 2.4092 25.4107 1.96042 23.1886L-1.96042 23.9804ZM1.60385 19.6038C1.60385 20.6404 0.813769 21.4948 -0.195682 21.5941L0.195686 25.5749C3.23258 25.2763 5.60385 22.7182 5.60385 19.6038H1.60385ZM-0.195684 17.6136C0.81377 17.7129 1.60385 18.5673 1.60385 19.6038H5.60385C5.60385 16.4895 3.23258 13.9314 0.195684 13.6328L-0.195684 17.6136ZM1.28516 7.41699C-0.266226 9.74473 -1.38672 12.3866 -1.96042 15.2273L1.96042 16.0191C2.42897 13.6991 3.34412 11.5402 4.61365 9.63536L1.28516 7.41699ZM6.67469 6.6748C5.97639 7.3731 4.88631 7.44815 4.1067 6.89502L1.79211 10.1573C4.13582 11.8202 7.40253 11.6038 9.50311 9.50323L6.67469 6.6748ZM6.8949 4.1068C7.44804 4.88641 7.37299 5.9765 6.67469 6.6748L9.50311 9.50323C11.6037 7.40264 11.8201 4.1359 10.1572 1.79218L6.8949 4.1068ZM15.2273 -1.96042C12.3865 -1.38671 9.74462 -0.26618 7.41685 1.28525L9.63524 4.61373C11.5401 3.34416 13.699 2.42898 16.0191 1.96042L15.2273 -1.96042ZM19.6039 1.60385C18.5673 1.60385 17.7129 0.813767 17.6136 -0.195683L13.6328 0.195683C13.9314 3.23258 16.4895 5.60385 19.6039 5.60385V1.60385Z" fill="#202A39" mask="url(#path-1-inside-1)"/>
<path d="M15 19.6734L18.5007 23.3492L24.5474 17" stroke="#27AE60" stroke-width="2"/>
</svg>
