<svg width="33" height="44" viewBox="0 0 33 44" fill="none" xmlns="http://www.w3.org/2000/svg">
<path d="M1 9.94118L1.03397 8.94175L0 8.90661V9.94118H1ZM16.3845 42.2002L16.1558 43.1737L16.3918 43.2291L16.6271 43.1703L16.3845 42.2002ZM16.3845 1.00056L17.3714 1.16194L17.3845 1.08178V1.00056H16.3845ZM16.3845 1L17.3714 0.838384L15.3845 1H16.3845ZM16.3846 1.00028L15.3977 1.1619H17.3714L16.3846 1.00028ZM16.3846 1H17.3846L15.3978 0.838384L16.3846 1ZM16.3846 1.00056H15.3846V1.08178L15.3977 1.16194L16.3846 1.00056ZM31.7691 9.94118H32.7691V8.90661L31.7352 8.94175L31.7691 9.94118ZM16.3846 42.2002L16.6272 43.1704L16.6386 43.1674L16.3846 42.2002ZM0 9.94118C0 19.3252 2.28878 27.181 5.42074 32.9057C8.51958 38.5699 12.5514 42.3268 16.1558 43.1737L16.6133 41.2267C13.8331 40.5735 10.1726 37.4244 7.17532 31.9458C4.21117 26.5278 2 19.0041 2 9.94118H0ZM15.3976 0.839181C14.8581 4.13865 12.5096 6.19322 9.57277 7.43161C6.62446 8.67483 3.23815 9.01667 1.03397 8.94175L0.966033 10.9406C3.37713 11.0225 7.0675 10.6585 10.3498 9.27447C13.6436 7.88557 16.6798 5.3914 17.3714 1.16194L15.3976 0.839181ZM17.3845 1.00056V1H15.3845V1.00056H17.3845ZM15.3977 1.16162C15.3977 1.16171 15.3977 1.1618 15.3977 1.1619L17.3714 0.838661C17.3714 0.838569 17.3714 0.838477 17.3714 0.838384L15.3977 1.16162ZM15.3978 0.838384C15.3977 0.838477 15.3977 0.838569 15.3977 0.838661L17.3714 1.1619C17.3714 1.1618 17.3715 1.16171 17.3715 1.16162L15.3978 0.838384ZM17.3846 1.00056V1H15.3846V1.00056H17.3846ZM15.3977 1.16194C16.0893 5.3914 19.1255 7.88557 22.4193 9.27447C25.7016 10.6585 29.392 11.0225 31.8031 10.9406L31.7352 8.94175C29.531 9.01667 26.1447 8.67483 23.1964 7.43161C20.2595 6.19322 17.911 4.13865 17.3715 0.839181L15.3977 1.16194ZM30.7691 9.94118C30.7691 19.0292 28.8548 26.4296 26.0474 31.7732C23.2262 37.1433 19.5664 40.3306 16.1306 41.233L16.6386 43.1674C20.8184 42.0697 24.8509 38.351 27.818 32.7034C30.799 27.0292 32.7691 19.3001 32.7691 9.94118H30.7691ZM16.1421 41.2301C16.257 41.2013 16.3543 41.1988 16.4158 41.2007C16.4464 41.2016 16.4709 41.2038 16.4856 41.2053C16.4932 41.2061 16.4992 41.2068 16.5029 41.2072C16.5062 41.2076 16.5091 41.208 16.5086 41.2079C16.5086 41.2079 16.5086 41.2079 16.5086 41.2079C16.5086 41.2079 16.5086 41.2079 16.5086 41.2079C16.5086 41.2079 16.5085 41.2079 16.5085 41.2079C16.5085 41.2079 16.5084 41.2079 16.5082 41.2079C16.508 41.2078 16.5076 41.2078 16.5072 41.2077C16.5063 41.2076 16.5047 41.2074 16.5029 41.2072C16.4992 41.2068 16.4931 41.2061 16.4856 41.2053C16.4709 41.2038 16.4463 41.2016 16.4158 41.2007C16.3542 41.1988 16.257 41.2013 16.142 41.2301L16.6271 43.1703C16.5121 43.1991 16.4149 43.2016 16.3533 43.1997C16.3228 43.1987 16.2982 43.1966 16.2835 43.1951C16.276 43.1943 16.2699 43.1936 16.2663 43.1932C16.2629 43.1928 16.2601 43.1924 16.2605 43.1925C16.2605 43.1925 16.2605 43.1925 16.2605 43.1925C16.2605 43.1925 16.2606 43.1925 16.2606 43.1925C16.2606 43.1925 16.2606 43.1925 16.2606 43.1925C16.2607 43.1925 16.2608 43.1925 16.2609 43.1925C16.2611 43.1925 16.2615 43.1926 16.262 43.1926C16.2629 43.1928 16.2644 43.193 16.2663 43.1932C16.2699 43.1936 16.276 43.1943 16.2835 43.1951C16.2982 43.1966 16.3228 43.1988 16.3534 43.1997C16.4149 43.2016 16.5122 43.1991 16.6272 43.1703L16.1421 41.2301Z" fill="#202A39"/>
<path d="M11 20.8735L14.7249 24.5494L21.1587 18.2002" stroke="#27AE60" stroke-width="2"/>
</svg>
